<?xml version="1.0" encoding="UTF-8" standalone="no"?>
<!DOCTYPE svg PUBLIC "-//W3C//DTD SVG 1.1//EN"
 "http://www.w3.org/Graphics/SVG/1.1/DTD/svg11.dtd">
<!-- Generated by graphviz version 12.0.0 (20240803.0821)
 -->
<!-- Pages: 1 -->
<svg width="281pt" height="253pt"
 viewBox="0.00 0.00 280.75 253.00" xmlns="http://www.w3.org/2000/svg" xmlns:xlink="http://www.w3.org/1999/xlink">
<g id="graph0" class="graph" transform="scale(1 1) rotate(0) translate(4 249)">
<polygon fill="white" stroke="none" points="-4,4 -4,-249 276.75,-249 276.75,4 -4,4"/>
<g id="clust1" class="cluster">
<title>cluster_data</title>
<polygon fill="none" stroke="black" points="8,-8 8,-157.25 112,-157.25 112,-8 8,-8"/>
<text text-anchor="middle" x="88.25" y="-15.95" font-family="Times,serif" font-size="14.00">data</text>
</g>
<!-- h0 -->
<g id="node1" class="node">
<title>h0</title>
<ellipse fill="white" stroke="black" cx="60" cy="-215.12" rx="27" ry="18"/>
<text text-anchor="middle" x="60" y="-210.45" font-family="Times,serif" font-size="14.00">h0</text>
</g>
<!-- pred -->
<g id="node2" class="node">
<title>pred</title>
<ellipse fill="white" stroke="black" stroke-dasharray="5,2" cx="60" cy="-131.25" rx="34.37" ry="18"/>
<text text-anchor="middle" x="60" y="-126.58" font-family="Times,serif" font-size="14.00">pred</text>
</g>
<!-- h0&#45;&gt;pred -->
<g id="edge1" class="edge">
<title>h0&#45;&gt;pred</title>
<path fill="none" stroke="black" d="M60,-196.76C60,-186.34 60,-172.83 60,-160.86"/>
<polygon fill="black" stroke="black" points="63.5,-161.1 60,-151.1 56.5,-161.1 63.5,-161.1"/>
</g>
<!-- loglike -->
<g id="node3" class="node">
<title>loglike</title>
<ellipse fill="grey" stroke="black" cx="60" cy="-59.25" rx="44.37" ry="18"/>
<text text-anchor="middle" x="60" y="-54.58" font-family="Times,serif" font-size="14.00">loglike</text>
</g>
<!-- pred&#45;&gt;loglike -->
<g id="edge2" class="edge">
<title>pred&#45;&gt;loglike</title>
<path fill="none" stroke="black" d="M60,-112.95C60,-105.66 60,-96.98 60,-88.79"/>
<polygon fill="black" stroke="black" points="63.5,-88.87 60,-78.87 56.5,-88.87 63.5,-88.87"/>
</g>
<!-- distribution_description_node -->
<g id="node4" class="node">
<title>distribution_description_node</title>
<text text-anchor="start" x="113.25" y="-227.7" font-family="Times,serif" font-size="14.00">h0 ~ Uniform</text>
<text text-anchor="start" x="113.25" y="-210.45" font-family="Times,serif" font-size="14.00">pred ~ Deterministic</text>
<text text-anchor="start" x="113.25" y="-193.2" font-family="Times,serif" font-size="14.00">loglike ~ Normal</text>
</g>
</g>
</svg>
